<svg aria-hidden="true" style="position: absolute; width: 0; height: 0; overflow: hidden;" version="1.1" xmlns="http://www.w3.org/2000/svg" xmlns:xlink="http://www.w3.org/1999/xlink">
<defs>
<symbol id="play" viewBox="0 0 27 32">
<path d="M27.042 15.613l-27.042 15.613v-31.226l27.042 15.613z"></path>
</symbol>
<symbol id="hrestik" viewBox="0 0 32 32">
<path d="M29.763 0.669c0.893 0.893 0.893 2.34 0 3.232l-11.312 11.312 11.312 11.315c0.893 0.893 0.893 2.34 0 3.232s-2.34 0.893-3.232 0l-11.312-11.315-11.315 11.315c-0.893 0.893-2.34 0.893-3.232 0s-0.893-2.34 0-3.232l11.315-11.315-11.315-11.312c-0.893-0.893-0.893-2.34 0-3.232s2.34-0.893 3.232 0l11.315 11.312 11.312-11.312c0.893-0.893 2.34-0.893 3.232 0z"></path>
</symbol>
<symbol id="menu" viewBox="0 0 59 32">
<path d="M58.667 31.107h-58.667v-5.184h58.667v5.184zM58.667 18.146h-58.667v-5.184h58.667v5.184zM58.667 5.184h-58.667v-5.184h58.667v5.184z"></path>
</symbol>
<symbol id="galochka" viewBox="0 0 38 32">
<path stroke-linejoin="miter" stroke-linecap="round" stroke-miterlimit="4" stroke-width="4.3636" d="M2.182 18.182l10.46 10.46c0.622 0.622 1.651 0.554 2.185-0.146l20.082-26.314"></path>
</symbol>
<symbol id="strilka" viewBox="0 0 32 32">
<path stroke-linejoin="miter" stroke-linecap="butt" stroke-miterlimit="4" stroke-width="2.9091" d="M1.028 30.545l29.091-29.091M30.119 1.455h-29.091M30.119 1.455v29.091"></path>
</symbol>
<symbol id="colo" viewBox="0 0 32 32">
<path d="M32 16c0 8.837-7.163 16-16 16s-16-7.163-16-16c0-8.837 7.163-16 16-16s16 7.163 16 16z"></path>
</symbol>
<symbol id="pytanya" viewBox="0 0 15 32">
<path d="M4.875 22.208c0-1.667 0.174-3.021 0.521-4.062s1.194-2.368 2.542-3.979l1.458-1.875c0.972-1.361 1.458-2.778 1.458-4.25 0-1.458-0.306-2.597-0.917-3.417-0.597-0.833-1.458-1.25-2.583-1.25-1.056 0-1.938 0.375-2.646 1.125-0.694 0.75-1.042 1.757-1.042 3.021h-3.667c0.028-2.292 0.722-4.118 2.083-5.479s3.118-2.042 5.271-2.042c2.236 0 3.993 0.701 5.271 2.104s1.917 3.34 1.917 5.813c0 2.361-0.965 4.729-2.896 7.104l-1.917 2.313c-0.792 1.125-1.188 2.75-1.188 4.875h-3.667zM6.875 26.604c0.694 0 1.215 0.215 1.563 0.646 0.361 0.417 0.542 0.937 0.542 1.563s-0.181 1.146-0.542 1.563c-0.347 0.403-0.868 0.604-1.563 0.604-0.708 0-1.236-0.201-1.583-0.604-0.333-0.417-0.5-0.937-0.5-1.563s0.167-1.146 0.5-1.563c0.347-0.43 0.875-0.646 1.583-0.646z"></path>
</symbol>
<symbol id="bose" viewBox="0 0 260 32">
<path d="M210.618 5.048h44.948l4.436-5.034h-64.367l-17.86 30.445h41.713l2.996-5.034h-23.852l4.554-7.671h23.852l2.878-5.034h-23.734l4.436-7.671zM176.217 12.719h-17.74l2.877-4.914c1.199-2.038 2.277-2.757 4.075-2.757s2.397 1.438 1.439 3.237h18.099l1.798-3.237c1.318-2.397 1.318-5.034-1.918-5.034h-31.884c-2.877 0-5.154 0.36-6.832 3.117l-5.634 9.589c-1.558 2.757-1.438 5.034 2.397 5.034h18.339l-2.997 5.274c-0.839 1.438-1.918 2.397-4.435 2.397-2.158 0-2.038-1.438-1.079-2.877h-17.98l-2.158 3.596c-1.318 2.277-0.24 4.315 2.877 4.315h31.644c2.877 0 5.393-1.318 6.832-3.716l5.394-8.989c1.199-2.277 0.6-5.034-3.116-5.034z"></path>
<path d="M253.222 5.935c-1.462 0-2.648 1.15-2.648 2.555 0 1.434 1.186 2.584 2.648 2.584 1.456 0 2.636-1.15 2.636-2.584 0-1.405-1.18-2.555-2.636-2.555zM253.222 10.571c-1.194 0-2.146-0.91-2.146-2.082 0-1.135 0.952-2.053 2.146-2.053 1.18 0 2.134 0.917 2.134 2.053 0 1.172-0.954 2.082-2.134 2.082zM135.343 0.014h-27.089c-3.716 0-8.51 0-11.387 5.034l-11.986 20.376c-1.678 2.757-0.24 5.034 2.877 5.034h31.524c3.237 0 5.274-0.959 7.791-5.034l11.986-20.376c1.558-2.637-0.839-5.034-3.716-5.034zM120.12 7.805l-8.99 15.223c-1.199 2.158-2.277 2.397-5.034 2.397s-3.476-0.959-2.637-2.397l9.109-15.223c1.318-2.277 2.877-2.757 5.154-2.757s3.596 0.719 2.398 2.757zM87.877 0.014h-34.761l-14.983 25.411h-33.082l-5.052 5.034h71.815c4.435 0 5.873-2.158 6.832-3.835l3.596-6.233c0.959-1.678 0.959-3.596-0.959-4.674 1.921 0 4.555-1.318 6.113-4.075l3.596-6.113c1.798-2.997-0.36-5.514-3.117-5.514zM70.017 20.51l-1.798 2.877c-0.479 0.959-1.319 2.038-3.356 2.038h-8.87l4.558-7.671h8.628c1.558 0 1.558 1.439 0.839 2.757zM77.569 7.805l-1.798 2.877c-0.48 0.959-1.318 2.038-3.356 2.038h-8.87l4.555-7.671h8.63c1.559 0 1.559 1.438 0.839 2.757z"></path>
<path d="M254.576 7.821c0-0.24-0.11-0.495-0.328-0.619-0.226-0.124-0.472-0.138-0.72-0.138h-1.29v2.875h0.438v-1.325h0.518l0.844 1.325h0.502l-0.896-1.325c0.524-0.015 0.932-0.226 0.932-0.793zM253.156 8.257h-0.48v-0.866h0.764c0.372 0 0.698 0.051 0.698 0.422 0 0.517-0.566 0.444-0.982 0.444z"></path>
</symbol>
</defs>
</svg>
